<svg xmlns="http://www.w3.org/2000/svg" xmlns:xlink="http://www.w3.org/1999/xlink" width="1080" zoomAndPan="magnify" viewBox="0 0 810 809.999993" height="1080" preserveAspectRatio="xMidYMid meet" version="1.0"><defs><g/></defs><rect x="-81" width="972" fill="#ffffff" y="-80.999999" height="971.999992" fill-opacity="1"/><rect x="-81" width="972" fill="#ffffff" y="-80.999999" height="971.999992" fill-opacity="1"/><rect x="-81" width="972" fill="#ffffff" y="-80.999999" height="971.999992" fill-opacity="1"/><rect x="-81" width="972" fill="#ffffff" y="-80.999999" height="971.999992" fill-opacity="1"/><path fill="#a2d3ff" d="M 364.648438 234.820312 C 415.746094 264.492188 467.929688 292.675781 517.441406 324.691406 C 547.761719 344.300781 579.519531 362.054688 608.890625 382.53125 C 625.210938 393.894531 635.347656 402.339844 613.332031 431.75 L 613.355469 431.683594 C 609.683594 438.03125 599.625 454.738281 596.273438 460.304688 C 579.453125 488.167969 573.027344 487.339844 540.644531 474.246094 C 459.886719 441.589844 386.4375 392.464844 309.832031 351.050781 C 282.074219 336.046875 217.847656 295.070312 191.902344 280.261719 C 162.75 263.617188 222.558594 188.582031 243.96875 167.675781 C 251.726562 160.109375 324.351562 211.417969 364.648438 234.820312 Z M 364.648438 234.820312 " fill-opacity="1" fill-rule="nonzero"/><path fill="#a2d3ff" d="M 445.382812 234.820312 C 394.285156 264.492188 342.101562 292.675781 292.585938 324.691406 C 262.273438 344.300781 230.515625 362.054688 201.140625 382.53125 C 184.820312 393.894531 174.679688 402.339844 196.699219 431.75 L 196.675781 431.683594 C 200.347656 438.03125 210.410156 454.738281 213.757812 460.304688 C 230.578125 488.167969 237.003906 487.339844 269.390625 474.246094 C 350.148438 441.589844 423.597656 392.464844 500.199219 351.050781 C 527.960938 336.046875 592.1875 295.070312 618.128906 280.261719 C 647.28125 263.617188 587.472656 188.582031 566.0625 167.675781 C 558.308594 160.109375 485.679688 211.417969 445.382812 234.820312 Z M 445.382812 234.820312 " fill-opacity="1" fill-rule="nonzero"/><path fill="#a2d3ff" d="M 342.605469 241.847656 C 342.902344 300.9375 341.367188 360.230469 344.484375 419.109375 C 346.402344 455.167969 345.988281 491.546875 349.125 527.222656 C 350.863281 547.035156 353.136719 560.035156 389.601562 555.570312 L 389.53125 555.558594 C 396.863281 555.53125 416.359375 555.121094 422.859375 554.988281 C 455.394531 554.269531 457.875 548.285156 462.640625 513.675781 C 474.515625 427.375 468.476562 339.214844 470.695312 252.152344 C 471.5 220.605469 467.929688 144.503906 468.003906 114.625 C 468.078125 81.058594 373.230469 95.582031 344.445312 103.746094 C 334.023438 106.710938 342.367188 195.246094 342.605469 241.847656 Z M 342.605469 241.847656 " fill-opacity="1" fill-rule="nonzero"/><path fill="#414370" d="M 397.699219 314.585938 C 397.734375 343.027344 397.554688 371.5625 397.921875 399.910156 C 398.148438 417.261719 398.097656 434.773438 398.464844 451.941406 C 398.667969 461.480469 398.933594 467.738281 403.207031 465.589844 L 403.199219 465.582031 C 404.058594 465.570312 406.34375 465.375 407.105469 465.308594 C 410.917969 464.960938 411.210938 462.082031 411.765625 445.421875 C 413.160156 403.882812 412.453125 361.449219 412.710938 319.546875 C 412.804688 304.363281 412.386719 267.730469 412.398438 253.347656 C 412.40625 237.191406 401.292969 244.183594 397.917969 248.113281 C 396.695312 249.542969 397.671875 292.15625 397.699219 314.585938 Z M 397.699219 314.585938 " fill-opacity="1" fill-rule="nonzero"/><path fill="#414370" d="M 423.734375 197.328125 C 422.40625 191.003906 414.855469 185.617188 408.058594 183.804688 C 402.542969 182.328125 396.132812 183.324219 391.792969 187.296875 C 379.925781 198.164062 387.070312 219.285156 403.253906 220.519531 C 416.097656 221.496094 426.351562 209.769531 423.734375 197.328125 Z M 423.734375 197.328125 " fill-opacity="1" fill-rule="nonzero"/><path fill="#414370" d="M 393.0625 325.894531 C 392.464844 325.894531 391.867188 325.671875 391.402344 325.222656 C 372.089844 306.378906 364.429688 277.699219 373.199219 257.023438 C 380.808594 239.082031 399.109375 229.617188 424.800781 230.363281 C 426.109375 230.402344 427.140625 231.496094 427.101562 232.808594 C 427.066406 234.117188 425.953125 235.15625 424.660156 235.113281 C 401.070312 234.402344 384.363281 242.863281 377.570312 258.878906 C 369.539062 277.820312 376.75 304.292969 394.722656 321.820312 C 395.660156 322.738281 395.679688 324.242188 394.761719 325.179688 C 394.296875 325.65625 393.679688 325.894531 393.0625 325.894531 Z M 393.0625 325.894531 " fill-opacity="1" fill-rule="nonzero"/><path fill="#414370" d="M 395.171875 464.183594 C 394.90625 464.183594 394.632812 464.140625 394.367188 464.042969 C 386.199219 461.101562 381.566406 456.675781 380.605469 450.890625 C 378.136719 436.101562 400.78125 417.929688 412.945312 408.167969 L 414.53125 406.886719 C 427.644531 396.3125 434.027344 387.074219 434.621094 377.816406 C 435.25 368.058594 429.566406 357.679688 415.625 343.109375 C 414.71875 342.164062 414.75 340.660156 415.699219 339.75 C 416.644531 338.84375 418.148438 338.875 419.054688 339.824219 C 434.007812 355.449219 440.082031 366.902344 439.363281 378.117188 C 438.675781 388.796875 431.734375 399.113281 417.515625 410.585938 L 415.917969 411.871094 C 406.152344 419.710938 383.28125 438.066406 385.289062 450.105469 C 385.949219 454.070312 389.542969 457.257812 395.976562 459.574219 C 397.210938 460.019531 397.851562 461.378906 397.40625 462.613281 C 397.054688 463.582031 396.144531 464.183594 395.171875 464.183594 Z M 395.171875 464.183594 " fill-opacity="1" fill-rule="nonzero"/><path fill="#414370" d="M 207.28125 267.835938 C 207.242188 267.835938 207.199219 267.835938 207.15625 267.835938 C 205.847656 267.765625 204.839844 266.648438 204.910156 265.339844 C 206.527344 234.277344 226.445312 210.738281 244.019531 189.964844 C 246.769531 186.714844 249.367188 183.644531 251.886719 180.5625 C 252.714844 179.546875 254.210938 179.398438 255.226562 180.226562 C 256.242188 181.058594 256.390625 182.554688 255.5625 183.570312 C 253.023438 186.683594 250.410156 189.769531 247.644531 193.035156 C 230.554688 213.230469 211.1875 236.125 209.652344 265.585938 C 209.585938 266.855469 208.539062 267.835938 207.28125 267.835938 Z M 207.28125 267.835938 " fill-opacity="1" fill-rule="nonzero"/><path fill="#414370" d="M 564.054688 463.128906 C 562.789062 463.128906 561.738281 462.136719 561.683594 460.859375 C 561.625 459.546875 562.640625 458.4375 563.953125 458.382812 C 572.570312 458.003906 584.464844 432.015625 591.570312 416.488281 C 594.90625 409.199219 597.785156 402.902344 600.046875 399.316406 C 600.746094 398.203125 602.214844 397.875 603.324219 398.574219 C 604.433594 399.273438 604.765625 400.742188 604.0625 401.851562 C 601.972656 405.167969 599.152344 411.328125 595.886719 418.464844 C 584.4375 443.484375 574.832031 462.664062 564.160156 463.128906 C 564.125 463.128906 564.089844 463.128906 564.054688 463.128906 Z M 564.054688 463.128906 " fill-opacity="1" fill-rule="nonzero"/><path fill="#414370" d="M 373.003906 543.359375 C 371.691406 543.359375 370.628906 542.296875 370.628906 540.984375 C 370.628906 539.671875 371.691406 538.609375 373.003906 538.609375 C 397.417969 538.609375 419.085938 537.578125 439.253906 535.453125 C 440.570312 535.316406 441.726562 536.261719 441.863281 537.566406 C 442 538.871094 441.054688 540.039062 439.75 540.175781 C 419.417969 542.316406 397.582031 543.359375 373.003906 543.359375 Z M 373.003906 543.359375 " fill-opacity="1" fill-rule="nonzero"/><path fill="#414370" d="M 610.234375 268.363281 C 608.988281 268.363281 607.941406 267.390625 607.867188 266.132812 C 606.734375 247.320312 582.058594 203.289062 560.523438 187.132812 C 559.472656 186.34375 559.261719 184.855469 560.046875 183.808594 C 560.835938 182.757812 562.324219 182.546875 563.375 183.332031 C 584.605469 199.261719 611.292969 243.988281 612.609375 265.847656 C 612.6875 267.15625 611.691406 268.28125 610.378906 268.359375 C 610.328125 268.363281 610.28125 268.363281 610.234375 268.363281 Z M 610.234375 268.363281 " fill-opacity="1" fill-rule="nonzero"/><path fill="#414370" d="M 356.113281 121.105469 C 354.808594 121.105469 353.746094 120.050781 353.738281 118.738281 C 353.734375 117.425781 354.792969 116.359375 356.105469 116.355469 C 365.765625 116.316406 375.9375 114.652344 386.710938 112.894531 C 407.289062 109.535156 428.574219 106.058594 446.828125 114.460938 C 448.019531 115.011719 448.542969 116.421875 447.992188 117.613281 C 447.441406 118.804688 446.03125 119.324219 444.84375 118.777344 C 427.902344 110.980469 407.351562 114.335938 387.480469 117.582031 C 377 119.296875 366.160156 121.066406 356.125 121.105469 C 356.121094 121.105469 356.117188 121.105469 356.113281 121.105469 Z M 356.113281 121.105469 " fill-opacity="1" fill-rule="nonzero"/><path fill="#414370" d="M 245.28125 464.1875 C 245.023438 464.1875 244.765625 464.144531 244.507812 464.058594 C 233.328125 460.207031 201.257812 412.488281 197.632812 401.316406 C 197.226562 400.070312 197.910156 398.730469 199.160156 398.324219 C 200.402344 397.917969 201.742188 398.605469 202.152344 399.851562 C 205.679688 410.71875 237.203125 456.515625 246.054688 459.5625 C 247.296875 459.992188 247.957031 461.34375 247.527344 462.582031 C 247.1875 463.566406 246.265625 464.1875 245.28125 464.1875 Z M 245.28125 464.1875 " fill-opacity="1" fill-rule="nonzero"/><g fill="#a2d3ff" fill-opacity="1"><g transform="translate(24.533205, 715.171736)"><g><path d="M 6.699219 0 L 42.207031 0 L 42.207031 -54.132812 L 42.476562 -54.132812 L 66.328125 0 L 96.476562 0 L 119.65625 -54.132812 L 119.925781 -54.132812 L 119.925781 0 L 155.433594 0 L 155.433594 -96.476562 L 106.257812 -96.476562 L 81.199219 -38.457031 L 80.933594 -38.457031 L 55.742188 -96.476562 L 6.699219 -96.476562 Z M 6.699219 0 "/></g></g></g><g fill="#a2d3ff" fill-opacity="1"><g transform="translate(186.663817, 715.171736)"><g><path d="M 6.699219 0 L 95.136719 0 L 95.136719 -26.128906 L 44.21875 -26.128906 L 44.21875 -37.921875 L 88.4375 -37.921875 L 88.4375 -60.03125 L 44.21875 -60.03125 L 44.21875 -70.347656 L 93.796875 -70.347656 L 93.796875 -96.476562 L 6.699219 -96.476562 Z M 6.699219 0 "/></g></g></g><g fill="#a2d3ff" fill-opacity="1"><g transform="translate(284.478158, 715.171736)"><g><path d="M 6.699219 0 L 64.988281 0 C 101.167969 0 121.265625 -17.285156 121.265625 -48.238281 C 121.265625 -79.191406 101.167969 -96.476562 64.988281 -96.476562 L 6.699219 -96.476562 Z M 44.21875 -27.46875 L 44.21875 -69.007812 L 61.636719 -69.007812 C 75.4375 -69.007812 83.078125 -61.636719 83.078125 -48.238281 C 83.078125 -34.972656 75.4375 -27.46875 61.636719 -27.46875 Z M 44.21875 -27.46875 "/></g></g></g><g fill="#a2d3ff" fill-opacity="1"><g transform="translate(409.49293, 715.171736)"><g><path d="M 66.460938 2.679688 C 100.226562 2.679688 123.675781 -13.667969 127.027344 -39.394531 L 91.117188 -44.21875 C 89.242188 -33.632812 79.996094 -26.800781 67.265625 -26.800781 C 52.125 -26.800781 42.609375 -35.105469 42.609375 -48.238281 C 42.609375 -61.371094 50.917969 -69.675781 64.050781 -69.675781 C 74.234375 -69.675781 81.199219 -64.050781 83.613281 -55.207031 L 118.855469 -62.84375 C 114.433594 -85.085938 92.859375 -99.15625 63.378906 -99.15625 C 26.800781 -99.15625 3.75 -79.324219 3.75 -48.238281 C 3.75 -16.480469 28.140625 2.679688 66.460938 2.679688 Z M 66.460938 2.679688 "/></g></g></g><g fill="#a2d3ff" fill-opacity="1"><g transform="translate(538.125476, 715.171736)"><g><path d="M 62.039062 2.679688 C 98.21875 2.679688 118.316406 -12.996094 118.316406 -41.269531 L 118.316406 -96.476562 L 79.460938 -96.476562 L 79.460938 -43.28125 C 79.460938 -32.695312 73.160156 -27.199219 62.039062 -27.199219 C 50.785156 -27.199219 44.621094 -32.695312 44.621094 -43.28125 L 44.621094 -96.476562 L 5.761719 -96.476562 L 5.761719 -41.269531 C 5.761719 -12.996094 25.859375 2.679688 62.039062 2.679688 Z M 62.039062 2.679688 "/></g></g></g><g fill="#a2d3ff" fill-opacity="1"><g transform="translate(662.068326, 715.171736)"><g><path d="M 97.683594 2.410156 C 106.792969 2.410156 117.246094 -0.402344 122.738281 -4.421875 L 117.914062 -20.234375 C 116.441406 -19.296875 113.894531 -18.492188 112.019531 -18.492188 C 108.671875 -18.492188 106.660156 -20.234375 105.1875 -22.777344 L 101.03125 -29.480469 C 99.15625 -33.5 96.746094 -36.179688 92.992188 -37.25 L 92.992188 -37.382812 C 108.132812 -41.671875 116.574219 -51.453125 116.574219 -64.71875 C 116.574219 -85.222656 101.96875 -96.476562 75.4375 -96.476562 L 6.699219 -96.476562 L 6.699219 0 L 45.558594 0 L 45.558594 -30.820312 L 53.867188 -30.820312 C 59.492188 -30.820312 63.511719 -27.871094 66.328125 -23.046875 L 70.078125 -15.8125 C 75.039062 -5.894531 83.480469 2.410156 97.683594 2.410156 Z M 45.558594 -52.929688 L 45.558594 -72.355469 L 65.65625 -72.355469 C 73.429688 -72.355469 77.71875 -68.875 77.71875 -62.710938 C 77.71875 -56.410156 73.429688 -52.929688 65.523438 -52.929688 Z M 45.558594 -52.929688 "/></g></g></g></svg>